# xmcd CD database file
#
# Track frame offsets:
#	183
#	10850
#	21073
#	32330
#	43280
#	52580
#	66308
#	79885
#	90763
#	103073
#	116108
#	128920
#	142350
#	154933
#	172738
#	186875
#	199070
#	208470
#	216460
#	228418
#	244800
#	256888
#	270853
#	285015
#	298273
#	315603
#	329830
#
# Disc length: 4576 seconds
#
# Revision: 3
# Processed by: cddbd v1.5.2PL0 Copyright (c) Steve Scherf et al.
# Submitted via: CDex 1.51
#
DISCID=8d11de1b
DTITLE=Various Artist - Chess Blues Rarities
DYEAR=1900
DGENRE=Blues
TTITLE0=Buddy Guy - Sick Around
TTITLE1=Buddy Guy - Gully Hully
TTITLE2=Buddy Guy - That's It
TTITLE3=Buddy Guy - American Bandstand
TTITLE4=Buddy Guy - Untitled Instrumental
TTITLE5=Buddy Guy - My Love Is Real
TTITLE6=B Timmons - Moanin'
TTITLE7=Hound Dog Taylor - Down Home Special
TTITLE8=Hound Dog Taylor - Watch Out
TTITLE9=Hound Dog Taylor - Scrappin'
TTITLE10=Hound Dog Taylor - Sittin' Here Alone
TTITLE11=Hound Dog Taylor - Hound Dog
TTITLE12=Sonny Boy Williamson - Little Village
TTITLE13=Sonny Boy Williamson - Unseen Eye
TTITLE14=B B King - Recession Blues
TTITLE15=B B King - Don't Keep Me Waiting
TTITLE16=B B King - Tickle Britches
TTITLE17=B B King - Don't Break Your Promise
TTITLE18=Chester Burnett - You Can't Put Me Out
TTITLE19=Chester Burnett - Gettin' Late
TTITLE20=Chester Burnett - Rockin' Daddy
TTITLE21=Chester Burnett - I Didn't Know
TTITLE22=Chester Burnett - I Better Go Now
TTITLE23=Chester Burnett - New Crawlin' King Snake
TTITLE24=Chester Burnett - My Mind Is Ramblin'
TTITLE25=Chester Burnett - Tail Dragger
TTITLE26=Chester Burnett - Poor Wind That Never Change
EXTD=Input by Bill (whall@netcomuk.co.uk]\n\nTrack order on CD notes does not agree with actual order
EXTT0=
EXTT1=
EXTT2=
EXTT3=
EXTT4=
EXTT5=
EXTT6=
EXTT7=
EXTT8=
EXTT9=
EXTT10=
EXTT11=
EXTT12=
EXTT13=
EXTT14=
EXTT15=
EXTT16=
EXTT17=
EXTT18=
EXTT19=
EXTT20=
EXTT21=
EXTT22=
EXTT23=
EXTT24=
EXTT25=
EXTT26=
PLAYORDER=
